PathFileType	4	(X/Y/Z)	OpenSim_Sub02_CSStiffKnee_Magnet.trc
DataRate	CameraRate	NumFrames	NumMarkers	Units	OrigDataRate	OrigDataStartFrame	OrigNumFrames
100	100	40	8	m	100	6030	6891
Frame#	Time	torso_imu_offset_imu	pelvis_imu_offset_imu	tibia_r_imu_offset_imu	femur_r_imu_offset_imu	tibia_l_imu_offset_imu	femur_l_imu_offset_imu	toes_r_imu_offset_imu	toes_l_imu_offset_imu
				X1	Y1	Z1	X2	Y2	Z2	X3	Y3	Z3	X4	Y4	Z4	X5	Y5	Z5	X6	Y6	Z6	X7	Y7	Z7	X8		Y8	Z8	

6030	60.29000000	-0.95338206	-0.04766280	0.09222607	-0.60966858	0.09196267	-0.70776737	-0.39712329	-0.68954105	-0.23667783	-0.73036503	-0.38900381	0.19555723	-0.60196271	0.57638669	-0.03589908	-0.61461582	0.20226249	0.21696475	-0.64362101	-0.35375511	-0.38987705	-0.65403239	-0.15002749	-0.47470454
6031	60.30000000	-0.95476745	-0.05045615	0.08898809	-0.61516159	0.09632628	-0.70434583	-0.39339168	-0.69318396	-0.24599546	-0.73745278	-0.39139842	0.19406863	-0.58792410	0.58540332	-0.04436050	-0.61312957	0.19861904	0.22199859	-0.65168661	-0.35455626	-0.38981987	-0.65151447	-0.15164572	-0.48028209
6032	60.31000000	-0.95448642	-0.04696063	0.09554485	-0.61064483	0.10090128	-0.70865195	-0.38169499	-0.69849834	-0.25091548	-0.73406143	-0.39184549	0.18830361	-0.57589271	0.60228278	-0.04745040	-0.61416644	0.19099603	0.22128174	-0.66602883	-0.36316876	-0.38638968	-0.64600893	-0.15237216	-0.47830686
6033	60.32000000	-0.95242226	-0.05120685	0.08812025	-0.61128806	0.10782405	-0.70348328	-0.37112230	-0.70552043	-0.25097941	-0.72930093	-0.38621148	0.19462051	-0.56740421	0.60682019	-0.04451988	-0.61019335	0.19167186	0.22149047	-0.67583965	-0.36693739	-0.37770717	-0.65912249	-0.14874455	-0.48328452
6034	60.33000000	-0.95277141	-0.04836857	0.07993627	-0.60870246	0.11595455	-0.70239516	-0.35770655	-0.70906732	-0.25574012	-0.74225978	-0.38534379	0.19981769	-0.56610608	0.60571428	-0.05194911	-0.60937111	0.19226925	0.22138996	-0.68967787	-0.37120419	-0.36915672	-0.65418341	-0.15451389	-0.48458050
6035	60.34000000	-0.95229458	-0.04944494	0.08664159	-0.60784363	0.12198547	-0.69849590	-0.33977890	-0.72106159	-0.25979884	-0.74231993	-0.37750102	0.19625423	-0.56974860	0.60530367	-0.05639779	-0.60361917	0.20046985	0.22537968	-0.70470595	-0.37581128	-0.35511315	-0.65059876	-0.15686008	-0.48500214
6036	60.35000000	-0.94971110	-0.05391054	0.08388636	-0.60958120	0.12840564	-0.69476173	-0.32090105	-0.72527217	-0.26330138	-0.74524803	-0.37211408	0.19450326	-0.56059296	0.61133050	-0.05953144	-0.60379138	0.21028536	0.23272332	-0.71701720	-0.37932774	-0.33644164	-0.65150406	-0.15315004	-0.48730369
6037	60.36000000	-0.95131647	-0.05438768	0.08418690	-0.60467255	0.13423362	-0.70366001	-0.30145291	-0.73220660	-0.26685137	-0.75719882	-0.36050841	0.19357432	-0.56691818	0.61203284	-0.05161541	-0.59567742	0.21814862	0.23003099	-0.73989819	-0.38039645	-0.31592409	-0.65374370	-0.15495259	-0.49071474
6038	60.37000000	-0.95362741	-0.05482773	0.08476150	-0.60485623	0.13591591	-0.70031595	-0.28013333	-0.73429579	-0.27690815	-0.75882671	-0.35257379	0.18380223	-0.55983550	0.62069711	-0.04261019	-0.58624490	0.23348060	0.23297306	-0.75658436	-0.38416139	-0.27975286	-0.65269691	-0.14961443	-0.49967031
6039	60.38000000	-0.94784832	-0.06695012	0.08669874	-0.61067959	0.14121321	-0.70084772	-0.25652485	-0.74728177	-0.27570789	-0.76780016	-0.33448363	0.16814956	-0.56037936	0.62221403	-0.03257270	-0.58580398	0.24080753	0.23385335	-0.77347639	-0.38582377	-0.23437445	-0.64925793	-0.14526769	-0.49943368
6040	60.39000000	-0.95205735	-0.06871043	0.08482865	-0.60779753	0.14579581	-0.70218912	-0.23387252	-0.74487643	-0.28187786	-0.77896598	-0.32292873	0.16064100	-0.55818538	0.62402161	-0.03166737	-0.58457859	0.24477196	0.22924764	-0.78264950	-0.39781168	-0.18430396	-0.65126720	-0.14529652	-0.49698106
6041	60.40000000	-0.94947582	-0.07515949	0.08759252	-0.60196299	0.14505223	-0.70517255	-0.21306003	-0.75147827	-0.28967947	-0.78527177	-0.29639684	0.14882888	-0.55808834	0.62474782	-0.03220530	-0.57488555	0.24646164	0.23092525	-0.79690119	-0.40736824	-0.13664660	-0.64901060	-0.14629511	-0.50646936
6042	60.41000000	-0.94895529	-0.07983783	0.09069775	-0.59611433	0.15003505	-0.70217711	-0.19104550	-0.75374882	-0.28734184	-0.79999882	-0.27597716	0.14351651	-0.55623165	0.62861420	-0.03408302	-0.57059189	0.25009862	0.23725841	-0.79299771	-0.41416807	-0.08536401	-0.64968438	-0.13169158	-0.50984267
6043	60.42000000	-0.94409927	-0.08437780	0.09385175	-0.60145933	0.14646510	-0.70849623	-0.17017112	-0.76285160	-0.28083450	-0.80675455	-0.26092535	0.12945530	-0.55634394	0.62908830	-0.03151178	-0.57251821	0.25820546	0.23977118	-0.79062485	-0.42819630	-0.03876606	-0.65378356	-0.13315566	-0.50889371
6044	60.43000000	-0.94359536	-0.08404504	0.09327912	-0.59144450	0.15316537	-0.70614334	-0.15879844	-0.77070686	-0.27480060	-0.81647751	-0.24009058	0.11436320	-0.55297218	0.63302797	-0.02531197	-0.56466059	0.25650796	0.24643722	-0.77955617	-0.44683097	-0.01737684	-0.66433976	-0.13408053	-0.50799995
6045	60.44000000	-0.94692416	-0.09398931	0.10221062	-0.58723179	0.15548173	-0.71232749	-0.14027190	-0.77666061	-0.25633563	-0.82043332	-0.22431001	0.10597192	-0.54683586	0.63345726	-0.01631746	-0.55898639	0.25642959	0.25502730	-0.76651004	-0.46131782	-0.01331124	-0.66495299	-0.14007771	-0.51162927
6046	60.45000000	-0.94498114	-0.09370675	0.10105609	-0.58576011	0.16188100	-0.71459600	-0.13366416	-0.78410979	-0.22750431	-0.83263775	-0.21029507	0.09289673	-0.54492266	0.63752166	-0.01877931	-0.55695084	0.26180098	0.26599930	-0.75754257	-0.46882694	-0.02639643	-0.66551766	-0.13632756	-0.50602056
6047	60.46000000	-0.94653048	-0.10068090	0.10570644	-0.57854846	0.16661431	-0.70863495	-0.12906952	-0.79341358	-0.20468299	-0.83437900	-0.19791274	0.08679108	-0.53952022	0.64127946	-0.01407271	-0.55238965	0.26013755	0.26414183	-0.73445237	-0.47969670	-0.03369983	-0.66876529	-0.12957489	-0.50258155
6048	60.47000000	-0.94483092	-0.10497316	0.11278686	-0.58116596	0.17151319	-0.71516196	-0.12986071	-0.78789763	-0.21227062	-0.83852943	-0.18574728	0.07020478	-0.53452519	0.65138147	-0.01255584	-0.54753843	0.26474972	0.26654134	-0.72301093	-0.49009068	-0.04904099	-0.67622410	-0.12401377	-0.50254014
6049	60.48000000	-0.94604345	-0.11069207	0.10822518	-0.57823324	0.17302943	-0.71782674	-0.14707748	-0.77653586	-0.23460946	-0.83891607	-0.17203610	0.06109037	-0.53360008	0.64989772	-0.01186483	-0.54184225	0.26738786	0.25903558	-0.71032214	-0.49080972	-0.07305604	-0.68186869	-0.12481714	-0.50055376
6050	60.49000000	-0.94170402	-0.11303128	0.11209359	-0.57725827	0.18398514	-0.71365655	-0.16898476	-0.76496220	-0.26735226	-0.84189090	-0.15398791	0.04882217	-0.53123037	0.64761068	-0.01825703	-0.53986165	0.27779597	0.26588847	-0.69672753	-0.48966491	-0.09050764	-0.68499526	-0.12375452	-0.49978423
6051	60.50000000	-0.94179085	-0.11938122	0.11900123	-0.57688290	0.19265790	-0.71475807	-0.19249000	-0.73834181	-0.30946649	-0.84419372	-0.14208830	0.03932277	-0.53517248	0.64623442	-0.01676853	-0.53576829	0.28990678	0.26214269	-0.68197572	-0.48221476	-0.11841905	-0.69401824	-0.11974966	-0.49289269
6052	60.51000000	-0.93886454	-0.12038586	0.12236062	-0.57276952	0.20163492	-0.71413192	-0.21703716	-0.72365270	-0.33804794	-0.85014381	-0.12992126	0.03396437	-0.52574757	0.65209430	-0.01547377	-0.53029444	0.29575510	0.26067944	-0.67490319	-0.47056556	-0.14321511	-0.69800889	-0.12061485	-0.48796140
6053	60.52000000	-0.93834786	-0.12163124	0.12310274	-0.57163139	0.20820181	-0.71382546	-0.24730919	-0.70052618	-0.36628727	-0.85679600	-0.11950913	0.03165293	-0.52910296	0.65668004	-0.01541677	-0.52020342	0.30350022	0.26030063	-0.65895575	-0.45375025	-0.16798357	-0.70270908	-0.11981442	-0.47907653
6054	60.53000000	-0.94088775	-0.12755177	0.12701726	-0.57171685	0.22259101	-0.71664532	-0.27472961	-0.68131536	-0.38040121	-0.85315386	-0.10694972	0.01711187	-0.52176638	0.65223316	-0.00988328	-0.51658968	0.31420268	0.26124852	-0.65199405	-0.43908581	-0.19167790	-0.71058393	-0.11856931	-0.47143300
6055	60.54000000	-0.93466088	-0.13000818	0.12824331	-0.56961806	0.22112468	-0.70876631	-0.30290839	-0.65937875	-0.38943765	-0.85825956	-0.09779328	0.01469144	-0.52747466	0.65596146	-0.00735696	-0.51005555	0.32275436	0.26136274	-0.64372151	-0.41939744	-0.21558841	-0.71740959	-0.12014151	-0.46133430
6056	60.55000000	-0.93752522	-0.13566856	0.13713732	-0.56650305	0.23502107	-0.71280484	-0.33310840	-0.64867103	-0.38897351	-0.86025107	-0.09096980	0.01635484	-0.51829691	0.66277404	-0.01227718	-0.50672911	0.32778464	0.25253764	-0.63302858	-0.40275183	-0.23958936	-0.71950898	-0.11577703	-0.45959563
6057	60.56000000	-0.93627515	-0.13562654	0.13824587	-0.56223133	0.24152443	-0.70375459	-0.36518877	-0.63660343	-0.37870940	-0.85904498	-0.08407250	0.01283470	-0.51574373	0.66529908	-0.01176401	-0.50383835	0.32903811	0.25374452	-0.62480838	-0.39123240	-0.27311493	-0.73208473	-0.12047832	-0.45129590
6058	60.57000000	-0.93193954	-0.14086987	0.13827556	-0.56574097	0.24367124	-0.70854022	-0.40029182	-0.61410321	-0.37464713	-0.85665145	-0.08377898	0.00914536	-0.50698519	0.66473256	-0.01234134	-0.49750774	0.33783741	0.25297277	-0.62523467	-0.37318152	-0.29240847	-0.73304689	-0.12413632	-0.43686938
6059	60.58000000	-0.93015961	-0.14358798	0.13956346	-0.55869445	0.24781369	-0.71130424	-0.43867968	-0.59325030	-0.36056542	-0.86207653	-0.07723079	0.00815056	-0.50593689	0.67333361	-0.01524146	-0.49726489	0.34509630	0.25071294	-0.61793110	-0.36384442	-0.32893722	-0.73909715	-0.11653976	-0.42495788
6060	60.59000000	-0.92771942	-0.14173639	0.14664558	-0.55830508	0.25007306	-0.70736092	-0.47410299	-0.58082331	-0.34619108	-0.85845529	-0.07692661	0.00089164	-0.50311257	0.67539355	-0.01695541	-0.49423298	0.35145353	0.25130483	-0.61014609	-0.35262317	-0.36760206	-0.74460874	-0.12176274	-0.42173154
6061	60.60000000	-0.92663669	-0.14731005	0.14953486	-0.55997896	0.25398901	-0.71365257	-0.50482627	-0.55763404	-0.33243181	-0.86177791	-0.08027367	-0.00252443	-0.49908306	0.67923597	-0.01773667	-0.48380765	0.34842667	0.25367344	-0.60121860	-0.33969399	-0.40113437	-0.74775473	-0.12072497	-0.41505034
6062	60.61000000	-0.93019378	-0.14882961	0.14760096	-0.55722717	0.25369317	-0.72016237	-0.53055894	-0.53477025	-0.31323926	-0.85815679	-0.07805981	-0.00214004	-0.49702162	0.68056982	-0.01959967	-0.48936216	0.35748133	0.25186585	-0.58973514	-0.32169564	-0.43596706	-0.75670092	-0.12235230	-0.39858986
6063	60.62000000	-0.92862239	-0.14147395	0.15065430	-0.55184802	0.25317712	-0.72406678	-0.55915918	-0.51982278	-0.30229168	-0.85981207	-0.08113885	-0.00305588	-0.49080722	0.69247093	-0.02080007	-0.47834330	0.35865578	0.24627617	-0.57807840	-0.30212817	-0.46502991	-0.76013384	-0.12522112	-0.38678592
6064	60.63000000	-0.93030402	-0.14676413	0.15420334	-0.54385228	0.24846556	-0.72297186	-0.58788090	-0.49611509	-0.29645418	-0.85473205	-0.08531404	-0.00641291	-0.48258910	0.70003117	-0.02582198	-0.47968334	0.36190146	0.24824648	-0.56065416	-0.28969029	-0.49292538	-0.76192608	-0.12143764	-0.37998828
6065	60.64000000	-0.92793790	-0.14854128	0.15125458	-0.54250632	0.24506658	-0.72128636	-0.60581002	-0.47255301	-0.29202578	-0.85407504	-0.09280117	-0.00446629	-0.48628342	0.70048054	-0.02794598	-0.47270022	0.37136314	0.23910223	-0.55334336	-0.26866017	-0.51772904	-0.76274423	-0.12343037	-0.37085045
6066	60.65000000	-0.92840726	-0.14947334	0.15066608	-0.54604697	0.24174935	-0.72307959	-0.62180011	-0.44915673	-0.29199146	-0.85784254	-0.10171677	-0.00896313	-0.47546291	0.70028045	-0.03327494	-0.46164671	0.37991659	0.23369915	-0.54434002	-0.24283121	-0.54690242	-0.77057627	-0.11877966	-0.36150495
6067	60.66000000	-0.92775348	-0.14586425	0.15364099	-0.55061280	0.23388239	-0.72091959	-0.63770788	-0.43482031	-0.28271265	-0.85663600	-0.10482831	-0.01112119	-0.46860958	0.70834900	-0.03679224	-0.46255025	0.38951974	0.23782789	-0.53662459	-0.22826019	-0.55851365	-0.77547742	-0.12044406	-0.34725905
6068	60.67000000	-0.92618706	-0.15133438	0.14611050	-0.54557573	0.23237230	-0.72253992	-0.64699469	-0.41619797	-0.27764453	-0.85126457	-0.11741665	-0.01168458	-0.46610538	0.70846031	-0.03832218	-0.45815901	0.40192396	0.22001397	-0.51774816	-0.22562812	-0.57247705	-0.77654157	-0.12078413	-0.33501861
6069	60.68000000	-0.92810524	-0.15068771	0.14394301	-0.54770482	0.22660929	-0.71685741	-0.66275386	-0.40533176	-0.27303028	-0.84603485	-0.12624646	-0.00330786	-0.45905620	0.71567756	-0.04737360	-0.45600231	0.40821379	0.20760204	-0.50616024	-0.23435032	-0.58026903	-0.78274709	-0.11503731	-0.32456560
